<mxfile host="app.diagrams.net" agent="Mozilla/5.0 (Windows NT 10.0; Win64; x64) AppleWebKit/537.36 (KHTML, like Gecko) Chrome/130.0.0.0 Safari/537.36 Edg/130.0.0.0" version="24.8.4">
  <diagram name="第 1 页" id="jBqERtAaF0nLBBN0ScaW">
    <mxGraphModel dx="973" dy="747" grid="1" gridSize="10" guides="1" tooltips="1" connect="1" arrows="1" fold="1" page="1" pageScale="1" pageWidth="413" pageHeight="583" math="0" shadow="0">
      <root>
        <mxCell id="0" />
        <mxCell id="1" parent="0" />
        <mxCell id="RCL9OEUPucsu8Cq3E-YE-1" value="" style="whiteSpace=wrap;html=1;aspect=fixed;fillColor=none;strokeWidth=1;" vertex="1" parent="1">
          <mxGeometry x="1540" y="100" width="180" height="180" as="geometry" />
        </mxCell>
        <mxCell id="RCL9OEUPucsu8Cq3E-YE-2" value="" style="whiteSpace=wrap;html=1;aspect=fixed;fillColor=none;strokeWidth=1;" vertex="1" parent="1">
          <mxGeometry x="1720" y="100" width="180" height="180" as="geometry" />
        </mxCell>
        <mxCell id="RCL9OEUPucsu8Cq3E-YE-3" value="" style="group" vertex="1" connectable="0" parent="1">
          <mxGeometry x="580" y="150" width="100" height="100" as="geometry" />
        </mxCell>
        <mxCell id="RCL9OEUPucsu8Cq3E-YE-4" value="" style="whiteSpace=wrap;html=1;aspect=fixed;fillColor=none;dashed=1;dashPattern=1 2;strokeWidth=0.5;" vertex="1" parent="RCL9OEUPucsu8Cq3E-YE-3">
          <mxGeometry x="10" y="10" width="80" height="80" as="geometry" />
        </mxCell>
        <mxCell id="RCL9OEUPucsu8Cq3E-YE-5" value="" style="endArrow=none;html=1;rounded=0;strokeWidth=0.2;" edge="1" parent="RCL9OEUPucsu8Cq3E-YE-3">
          <mxGeometry width="50" height="50" relative="1" as="geometry">
            <mxPoint x="10" as="sourcePoint" />
            <mxPoint x="90" as="targetPoint" />
          </mxGeometry>
        </mxCell>
        <mxCell id="RCL9OEUPucsu8Cq3E-YE-6" value="" style="endArrow=none;html=1;rounded=0;strokeWidth=0.2;" edge="1" parent="RCL9OEUPucsu8Cq3E-YE-3">
          <mxGeometry width="50" height="50" relative="1" as="geometry">
            <mxPoint x="10" y="100" as="sourcePoint" />
            <mxPoint x="90" y="100" as="targetPoint" />
          </mxGeometry>
        </mxCell>
        <mxCell id="RCL9OEUPucsu8Cq3E-YE-7" value="" style="endArrow=none;html=1;rounded=0;strokeWidth=0.2;" edge="1" parent="RCL9OEUPucsu8Cq3E-YE-3">
          <mxGeometry width="50" height="50" relative="1" as="geometry">
            <mxPoint x="100" y="10" as="sourcePoint" />
            <mxPoint x="100" y="90" as="targetPoint" />
          </mxGeometry>
        </mxCell>
        <mxCell id="RCL9OEUPucsu8Cq3E-YE-8" value="" style="endArrow=none;html=1;rounded=0;strokeWidth=0.2;" edge="1" parent="RCL9OEUPucsu8Cq3E-YE-3">
          <mxGeometry width="50" height="50" relative="1" as="geometry">
            <mxPoint y="10" as="sourcePoint" />
            <mxPoint y="90" as="targetPoint" />
          </mxGeometry>
        </mxCell>
        <mxCell id="RCL9OEUPucsu8Cq3E-YE-9" value="" style="verticalLabelPosition=bottom;verticalAlign=top;html=1;shape=mxgraph.basic.arc;startAngle=0.75;endAngle=0;strokeWidth=0.2;" vertex="1" parent="RCL9OEUPucsu8Cq3E-YE-3">
          <mxGeometry width="20" height="20" as="geometry" />
        </mxCell>
        <mxCell id="RCL9OEUPucsu8Cq3E-YE-10" value="" style="verticalLabelPosition=bottom;verticalAlign=top;html=1;shape=mxgraph.basic.arc;startAngle=0.75;endAngle=0;strokeWidth=0.2;flipH=1;flipV=1;" vertex="1" parent="RCL9OEUPucsu8Cq3E-YE-3">
          <mxGeometry x="80" y="80" width="20" height="20" as="geometry" />
        </mxCell>
        <mxCell id="RCL9OEUPucsu8Cq3E-YE-11" value="" style="verticalLabelPosition=bottom;verticalAlign=top;html=1;shape=mxgraph.basic.arc;startAngle=0.75;endAngle=0;strokeWidth=0.2;flipV=1;" vertex="1" parent="RCL9OEUPucsu8Cq3E-YE-3">
          <mxGeometry y="80" width="20" height="20" as="geometry" />
        </mxCell>
        <mxCell id="RCL9OEUPucsu8Cq3E-YE-12" value="" style="verticalLabelPosition=bottom;verticalAlign=top;html=1;shape=mxgraph.basic.arc;startAngle=0.75;endAngle=0;strokeWidth=0.2;flipH=1;" vertex="1" parent="RCL9OEUPucsu8Cq3E-YE-3">
          <mxGeometry x="80" width="20" height="20" as="geometry" />
        </mxCell>
        <mxCell id="RCL9OEUPucsu8Cq3E-YE-13" value="" style="whiteSpace=wrap;html=1;aspect=fixed;" vertex="1" parent="1">
          <mxGeometry x="953" y="80" width="160" height="160" as="geometry" />
        </mxCell>
        <mxCell id="RCL9OEUPucsu8Cq3E-YE-14" value="" style="shape=waypoint;sketch=0;fillStyle=solid;size=6;pointerEvents=1;points=[];fillColor=none;resizable=0;rotatable=0;perimeter=centerPerimeter;snapToPoint=1;" vertex="1" parent="1">
          <mxGeometry x="990" y="110" width="20" height="20" as="geometry" />
        </mxCell>
        <mxCell id="RCL9OEUPucsu8Cq3E-YE-15" value="" style="shape=waypoint;sketch=0;fillStyle=solid;size=6;pointerEvents=1;points=[];fillColor=none;resizable=0;rotatable=0;perimeter=centerPerimeter;snapToPoint=1;strokeWidth=0;" vertex="1" parent="1">
          <mxGeometry x="970" y="140" width="20" height="20" as="geometry" />
        </mxCell>
        <mxCell id="RCL9OEUPucsu8Cq3E-YE-16" value="" style="shape=waypoint;sketch=0;fillStyle=solid;size=6;pointerEvents=1;points=[];fillColor=none;resizable=0;rotatable=0;perimeter=centerPerimeter;snapToPoint=1;strokeWidth=2;" vertex="1" parent="1">
          <mxGeometry x="1043" y="150" width="20" height="20" as="geometry" />
        </mxCell>
        <mxCell id="RCL9OEUPucsu8Cq3E-YE-17" value="" style="shape=waypoint;sketch=0;fillStyle=solid;size=6;pointerEvents=1;points=[];fillColor=none;resizable=0;rotatable=0;perimeter=centerPerimeter;snapToPoint=1;strokeWidth=1.2;" vertex="1" parent="1">
          <mxGeometry x="970" y="200" width="20" height="20" as="geometry" />
        </mxCell>
        <mxCell id="RCL9OEUPucsu8Cq3E-YE-18" value="" style="shape=waypoint;sketch=0;fillStyle=solid;size=6;pointerEvents=1;points=[];fillColor=none;resizable=0;rotatable=0;perimeter=centerPerimeter;snapToPoint=1;" vertex="1" parent="1">
          <mxGeometry x="1033" y="210" width="20" height="20" as="geometry" />
        </mxCell>
        <mxCell id="RCL9OEUPucsu8Cq3E-YE-19" value="" style="shape=waypoint;sketch=0;fillStyle=solid;size=6;pointerEvents=1;points=[];fillColor=none;resizable=0;rotatable=0;perimeter=centerPerimeter;snapToPoint=1;" vertex="1" parent="1">
          <mxGeometry x="1073" y="110" width="20" height="20" as="geometry" />
        </mxCell>
        <mxCell id="RCL9OEUPucsu8Cq3E-YE-20" value="" style="shape=waypoint;sketch=0;fillStyle=solid;size=6;pointerEvents=1;points=[];fillColor=none;resizable=0;rotatable=0;perimeter=centerPerimeter;snapToPoint=1;strokeWidth=0.5;" vertex="1" parent="1">
          <mxGeometry x="1023" y="120" width="20" height="20" as="geometry" />
        </mxCell>
        <mxCell id="RCL9OEUPucsu8Cq3E-YE-21" value="" style="shape=waypoint;sketch=0;fillStyle=solid;size=6;pointerEvents=1;points=[];fillColor=none;resizable=0;rotatable=0;perimeter=centerPerimeter;snapToPoint=1;strokeWidth=0;" vertex="1" parent="1">
          <mxGeometry x="1003" y="180" width="20" height="20" as="geometry" />
        </mxCell>
        <mxCell id="RCL9OEUPucsu8Cq3E-YE-22" value="" style="shape=waypoint;sketch=0;fillStyle=solid;size=6;pointerEvents=1;points=[];fillColor=none;resizable=0;rotatable=0;perimeter=centerPerimeter;snapToPoint=1;strokeWidth=0;" vertex="1" parent="1">
          <mxGeometry x="1033" y="100" width="20" height="20" as="geometry" />
        </mxCell>
        <mxCell id="RCL9OEUPucsu8Cq3E-YE-23" value="" style="shape=waypoint;sketch=0;fillStyle=solid;size=6;pointerEvents=1;points=[];fillColor=none;resizable=0;rotatable=0;perimeter=centerPerimeter;snapToPoint=1;strokeWidth=0;" vertex="1" parent="1">
          <mxGeometry x="1083" y="180" width="20" height="20" as="geometry" />
        </mxCell>
        <mxCell id="RCL9OEUPucsu8Cq3E-YE-24" value="" style="shape=waypoint;sketch=0;fillStyle=solid;size=6;pointerEvents=1;points=[];fillColor=none;resizable=0;rotatable=0;perimeter=centerPerimeter;snapToPoint=1;strokeWidth=2;" vertex="1" parent="1">
          <mxGeometry x="970" y="90" width="20" height="20" as="geometry" />
        </mxCell>
        <mxCell id="RCL9OEUPucsu8Cq3E-YE-25" value="" style="shape=waypoint;sketch=0;fillStyle=solid;size=6;pointerEvents=1;points=[];fillColor=none;resizable=0;rotatable=0;perimeter=centerPerimeter;snapToPoint=1;strokeWidth=0.8;" vertex="1" parent="1">
          <mxGeometry x="1083" y="130" width="20" height="20" as="geometry" />
        </mxCell>
        <mxCell id="RCL9OEUPucsu8Cq3E-YE-26" value="" style="endArrow=none;html=1;rounded=0;exitX=0.31;exitY=0.61;exitDx=0;exitDy=0;exitPerimeter=0;strokeWidth=0.5;dashed=1;dashPattern=1 1;" edge="1" parent="1" source="RCL9OEUPucsu8Cq3E-YE-20" target="RCL9OEUPucsu8Cq3E-YE-21">
          <mxGeometry width="50" height="50" relative="1" as="geometry">
            <mxPoint x="1023" y="140" as="sourcePoint" />
            <mxPoint x="1073" y="90" as="targetPoint" />
          </mxGeometry>
        </mxCell>
        <mxCell id="RCL9OEUPucsu8Cq3E-YE-27" value="" style="endArrow=none;html=1;rounded=0;strokeWidth=0.5;dashed=1;dashPattern=1 1;" edge="1" parent="1" source="RCL9OEUPucsu8Cq3E-YE-16" target="RCL9OEUPucsu8Cq3E-YE-21">
          <mxGeometry width="50" height="50" relative="1" as="geometry">
            <mxPoint x="1043" y="140" as="sourcePoint" />
            <mxPoint x="1023" y="200" as="targetPoint" />
          </mxGeometry>
        </mxCell>
        <mxCell id="RCL9OEUPucsu8Cq3E-YE-28" value="" style="endArrow=none;html=1;rounded=0;strokeWidth=0.5;dashed=1;dashPattern=1 1;" edge="1" parent="1" source="RCL9OEUPucsu8Cq3E-YE-18">
          <mxGeometry width="50" height="50" relative="1" as="geometry">
            <mxPoint x="1053" y="150" as="sourcePoint" />
            <mxPoint x="1013" y="190" as="targetPoint" />
          </mxGeometry>
        </mxCell>
        <mxCell id="RCL9OEUPucsu8Cq3E-YE-29" value="" style="endArrow=none;html=1;rounded=0;strokeWidth=0.5;dashed=1;dashPattern=1 1;" edge="1" parent="1" source="RCL9OEUPucsu8Cq3E-YE-23" target="RCL9OEUPucsu8Cq3E-YE-21">
          <mxGeometry width="50" height="50" relative="1" as="geometry">
            <mxPoint x="1073" y="160" as="sourcePoint" />
            <mxPoint x="1053" y="220" as="targetPoint" />
          </mxGeometry>
        </mxCell>
        <mxCell id="RCL9OEUPucsu8Cq3E-YE-30" value="" style="endArrow=none;html=1;rounded=0;exitX=0.89;exitY=0.53;exitDx=0;exitDy=0;exitPerimeter=0;strokeWidth=0.5;dashed=1;dashPattern=1 1;" edge="1" parent="1" source="RCL9OEUPucsu8Cq3E-YE-25">
          <mxGeometry width="50" height="50" relative="1" as="geometry">
            <mxPoint x="1073" y="170" as="sourcePoint" />
            <mxPoint x="1013" y="190" as="targetPoint" />
          </mxGeometry>
        </mxCell>
        <mxCell id="RCL9OEUPucsu8Cq3E-YE-31" value="" style="endArrow=none;html=1;rounded=0;strokeWidth=0.5;dashed=1;dashPattern=1 1;" edge="1" parent="1" source="RCL9OEUPucsu8Cq3E-YE-17" target="RCL9OEUPucsu8Cq3E-YE-21">
          <mxGeometry width="50" height="50" relative="1" as="geometry">
            <mxPoint x="1083" y="180" as="sourcePoint" />
            <mxPoint x="1063" y="240" as="targetPoint" />
          </mxGeometry>
        </mxCell>
        <mxCell id="RCL9OEUPucsu8Cq3E-YE-32" value="" style="endArrow=none;html=1;rounded=0;strokeWidth=0.5;dashed=1;dashPattern=1 1;entryX=0.35;entryY=0.55;entryDx=0;entryDy=0;entryPerimeter=0;" edge="1" parent="1" source="RCL9OEUPucsu8Cq3E-YE-14" target="RCL9OEUPucsu8Cq3E-YE-21">
          <mxGeometry width="50" height="50" relative="1" as="geometry">
            <mxPoint x="1010" y="120" as="sourcePoint" />
            <mxPoint x="990" y="180" as="targetPoint" />
          </mxGeometry>
        </mxCell>
        <mxCell id="RCL9OEUPucsu8Cq3E-YE-33" value="" style="endArrow=none;html=1;rounded=0;strokeWidth=0.5;dashed=1;dashPattern=1 1;" edge="1" parent="1" source="RCL9OEUPucsu8Cq3E-YE-24" target="RCL9OEUPucsu8Cq3E-YE-21">
          <mxGeometry width="50" height="50" relative="1" as="geometry">
            <mxPoint x="1010" y="130" as="sourcePoint" />
            <mxPoint x="1023" y="200" as="targetPoint" />
          </mxGeometry>
        </mxCell>
        <mxCell id="RCL9OEUPucsu8Cq3E-YE-34" value="" style="endArrow=none;html=1;rounded=0;strokeWidth=0.5;dashed=1;dashPattern=1 1;" edge="1" parent="1" source="RCL9OEUPucsu8Cq3E-YE-19">
          <mxGeometry width="50" height="50" relative="1" as="geometry">
            <mxPoint x="1020" y="140" as="sourcePoint" />
            <mxPoint x="1013" y="190" as="targetPoint" />
          </mxGeometry>
        </mxCell>
        <mxCell id="RCL9OEUPucsu8Cq3E-YE-35" value="" style="endArrow=none;html=1;rounded=0;strokeWidth=0.5;dashed=1;dashPattern=1 1;entryX=0.59;entryY=0.95;entryDx=0;entryDy=0;entryPerimeter=0;exitX=0.7;exitY=0.93;exitDx=0;exitDy=0;exitPerimeter=0;" edge="1" parent="1" source="RCL9OEUPucsu8Cq3E-YE-15" target="RCL9OEUPucsu8Cq3E-YE-21">
          <mxGeometry width="50" height="50" relative="1" as="geometry">
            <mxPoint x="1030" y="150" as="sourcePoint" />
            <mxPoint x="1043" y="220" as="targetPoint" />
          </mxGeometry>
        </mxCell>
        <mxCell id="RCL9OEUPucsu8Cq3E-YE-36" value="" style="endArrow=none;html=1;rounded=0;strokeWidth=0.5;dashed=1;dashPattern=1 1;exitX=0.67;exitY=0.59;exitDx=0;exitDy=0;exitPerimeter=0;" edge="1" parent="1" source="RCL9OEUPucsu8Cq3E-YE-22">
          <mxGeometry width="50" height="50" relative="1" as="geometry">
            <mxPoint x="1040" y="160" as="sourcePoint" />
            <mxPoint x="1013" y="190" as="targetPoint" />
          </mxGeometry>
        </mxCell>
        <mxCell id="RCL9OEUPucsu8Cq3E-YE-37" value="" style="whiteSpace=wrap;html=1;aspect=fixed;" vertex="1" parent="1">
          <mxGeometry x="1190" y="80" width="160" height="160" as="geometry" />
        </mxCell>
        <mxCell id="RCL9OEUPucsu8Cq3E-YE-38" value="" style="shape=waypoint;sketch=0;fillStyle=solid;size=6;pointerEvents=1;points=[];fillColor=none;resizable=0;rotatable=0;perimeter=centerPerimeter;snapToPoint=1;" vertex="1" parent="1">
          <mxGeometry x="1227" y="110" width="20" height="20" as="geometry" />
        </mxCell>
        <mxCell id="RCL9OEUPucsu8Cq3E-YE-39" value="" style="shape=waypoint;sketch=0;fillStyle=solid;size=6;pointerEvents=1;points=[];fillColor=none;resizable=0;rotatable=0;perimeter=centerPerimeter;snapToPoint=1;strokeWidth=0;" vertex="1" parent="1">
          <mxGeometry x="1207" y="140" width="20" height="20" as="geometry" />
        </mxCell>
        <mxCell id="RCL9OEUPucsu8Cq3E-YE-40" value="" style="shape=waypoint;sketch=0;fillStyle=solid;size=6;pointerEvents=1;points=[];fillColor=none;resizable=0;rotatable=0;perimeter=centerPerimeter;snapToPoint=1;strokeWidth=2;" vertex="1" parent="1">
          <mxGeometry x="1280" y="150" width="20" height="20" as="geometry" />
        </mxCell>
        <mxCell id="RCL9OEUPucsu8Cq3E-YE-41" value="" style="shape=waypoint;sketch=0;fillStyle=solid;size=6;pointerEvents=1;points=[];fillColor=none;resizable=0;rotatable=0;perimeter=centerPerimeter;snapToPoint=1;strokeWidth=1.2;" vertex="1" parent="1">
          <mxGeometry x="1207" y="200" width="20" height="20" as="geometry" />
        </mxCell>
        <mxCell id="RCL9OEUPucsu8Cq3E-YE-42" value="" style="shape=waypoint;sketch=0;fillStyle=solid;size=6;pointerEvents=1;points=[];fillColor=none;resizable=0;rotatable=0;perimeter=centerPerimeter;snapToPoint=1;" vertex="1" parent="1">
          <mxGeometry x="1270" y="210" width="20" height="20" as="geometry" />
        </mxCell>
        <mxCell id="RCL9OEUPucsu8Cq3E-YE-43" value="" style="shape=waypoint;sketch=0;fillStyle=solid;size=6;pointerEvents=1;points=[];fillColor=none;resizable=0;rotatable=0;perimeter=centerPerimeter;snapToPoint=1;" vertex="1" parent="1">
          <mxGeometry x="1310" y="110" width="20" height="20" as="geometry" />
        </mxCell>
        <mxCell id="RCL9OEUPucsu8Cq3E-YE-44" value="" style="shape=waypoint;sketch=0;fillStyle=solid;size=6;pointerEvents=1;points=[];fillColor=none;resizable=0;rotatable=0;perimeter=centerPerimeter;snapToPoint=1;strokeWidth=0.5;" vertex="1" parent="1">
          <mxGeometry x="1260" y="120" width="20" height="20" as="geometry" />
        </mxCell>
        <mxCell id="RCL9OEUPucsu8Cq3E-YE-45" value="" style="shape=waypoint;sketch=0;fillStyle=solid;size=6;pointerEvents=1;points=[];fillColor=none;resizable=0;rotatable=0;perimeter=centerPerimeter;snapToPoint=1;strokeWidth=0;" vertex="1" parent="1">
          <mxGeometry x="1240" y="180" width="20" height="20" as="geometry" />
        </mxCell>
        <mxCell id="RCL9OEUPucsu8Cq3E-YE-46" value="" style="shape=waypoint;sketch=0;fillStyle=solid;size=6;pointerEvents=1;points=[];fillColor=none;resizable=0;rotatable=0;perimeter=centerPerimeter;snapToPoint=1;strokeWidth=0;" vertex="1" parent="1">
          <mxGeometry x="1270" y="100" width="20" height="20" as="geometry" />
        </mxCell>
        <mxCell id="RCL9OEUPucsu8Cq3E-YE-47" value="" style="shape=waypoint;sketch=0;fillStyle=solid;size=6;pointerEvents=1;points=[];fillColor=none;resizable=0;rotatable=0;perimeter=centerPerimeter;snapToPoint=1;strokeWidth=0;" vertex="1" parent="1">
          <mxGeometry x="1320" y="180" width="20" height="20" as="geometry" />
        </mxCell>
        <mxCell id="RCL9OEUPucsu8Cq3E-YE-48" value="" style="shape=waypoint;sketch=0;fillStyle=solid;size=6;pointerEvents=1;points=[];fillColor=none;resizable=0;rotatable=0;perimeter=centerPerimeter;snapToPoint=1;strokeWidth=2;" vertex="1" parent="1">
          <mxGeometry x="1207" y="90" width="20" height="20" as="geometry" />
        </mxCell>
        <mxCell id="RCL9OEUPucsu8Cq3E-YE-49" value="" style="shape=waypoint;sketch=0;fillStyle=solid;size=6;pointerEvents=1;points=[];fillColor=none;resizable=0;rotatable=0;perimeter=centerPerimeter;snapToPoint=1;strokeWidth=0.8;" vertex="1" parent="1">
          <mxGeometry x="1320" y="130" width="20" height="20" as="geometry" />
        </mxCell>
        <mxCell id="RCL9OEUPucsu8Cq3E-YE-50" value="" style="endArrow=none;html=1;rounded=0;exitX=0.31;exitY=0.61;exitDx=0;exitDy=0;exitPerimeter=0;strokeWidth=0.5;dashed=1;dashPattern=1 1;" edge="1" parent="1" source="RCL9OEUPucsu8Cq3E-YE-44" target="RCL9OEUPucsu8Cq3E-YE-45">
          <mxGeometry width="50" height="50" relative="1" as="geometry">
            <mxPoint x="1260" y="140" as="sourcePoint" />
            <mxPoint x="1310" y="90" as="targetPoint" />
          </mxGeometry>
        </mxCell>
        <mxCell id="RCL9OEUPucsu8Cq3E-YE-51" value="" style="endArrow=none;html=1;rounded=0;strokeWidth=0.5;dashed=1;dashPattern=1 1;" edge="1" parent="1" source="RCL9OEUPucsu8Cq3E-YE-40" target="RCL9OEUPucsu8Cq3E-YE-45">
          <mxGeometry width="50" height="50" relative="1" as="geometry">
            <mxPoint x="1280" y="140" as="sourcePoint" />
            <mxPoint x="1260" y="200" as="targetPoint" />
          </mxGeometry>
        </mxCell>
        <mxCell id="RCL9OEUPucsu8Cq3E-YE-52" value="" style="endArrow=none;html=1;rounded=0;strokeWidth=0.5;dashed=1;dashPattern=1 1;" edge="1" parent="1" source="RCL9OEUPucsu8Cq3E-YE-42">
          <mxGeometry width="50" height="50" relative="1" as="geometry">
            <mxPoint x="1290" y="150" as="sourcePoint" />
            <mxPoint x="1250" y="190" as="targetPoint" />
          </mxGeometry>
        </mxCell>
        <mxCell id="RCL9OEUPucsu8Cq3E-YE-53" value="" style="endArrow=none;html=1;rounded=0;strokeWidth=0.5;dashed=1;dashPattern=1 1;" edge="1" parent="1" source="RCL9OEUPucsu8Cq3E-YE-47" target="RCL9OEUPucsu8Cq3E-YE-45">
          <mxGeometry width="50" height="50" relative="1" as="geometry">
            <mxPoint x="1310" y="160" as="sourcePoint" />
            <mxPoint x="1290" y="220" as="targetPoint" />
          </mxGeometry>
        </mxCell>
        <mxCell id="RCL9OEUPucsu8Cq3E-YE-54" value="" style="endArrow=none;html=1;rounded=0;exitX=0.89;exitY=0.53;exitDx=0;exitDy=0;exitPerimeter=0;strokeWidth=0.5;dashed=1;dashPattern=1 1;" edge="1" parent="1" source="RCL9OEUPucsu8Cq3E-YE-49">
          <mxGeometry width="50" height="50" relative="1" as="geometry">
            <mxPoint x="1310" y="170" as="sourcePoint" />
            <mxPoint x="1250" y="190" as="targetPoint" />
          </mxGeometry>
        </mxCell>
        <mxCell id="RCL9OEUPucsu8Cq3E-YE-55" value="" style="endArrow=none;html=1;rounded=0;strokeWidth=0.5;dashed=1;dashPattern=1 1;" edge="1" parent="1" source="RCL9OEUPucsu8Cq3E-YE-41" target="RCL9OEUPucsu8Cq3E-YE-45">
          <mxGeometry width="50" height="50" relative="1" as="geometry">
            <mxPoint x="1320" y="180" as="sourcePoint" />
            <mxPoint x="1300" y="240" as="targetPoint" />
          </mxGeometry>
        </mxCell>
        <mxCell id="RCL9OEUPucsu8Cq3E-YE-56" value="" style="endArrow=none;html=1;rounded=0;strokeWidth=0.5;dashed=1;dashPattern=1 1;entryX=0.35;entryY=0.55;entryDx=0;entryDy=0;entryPerimeter=0;" edge="1" parent="1" source="RCL9OEUPucsu8Cq3E-YE-38" target="RCL9OEUPucsu8Cq3E-YE-45">
          <mxGeometry width="50" height="50" relative="1" as="geometry">
            <mxPoint x="1247" y="120" as="sourcePoint" />
            <mxPoint x="1227" y="180" as="targetPoint" />
          </mxGeometry>
        </mxCell>
        <mxCell id="RCL9OEUPucsu8Cq3E-YE-57" value="" style="endArrow=none;html=1;rounded=0;strokeWidth=0.5;dashed=1;dashPattern=1 1;" edge="1" parent="1" source="RCL9OEUPucsu8Cq3E-YE-48" target="RCL9OEUPucsu8Cq3E-YE-45">
          <mxGeometry width="50" height="50" relative="1" as="geometry">
            <mxPoint x="1247" y="130" as="sourcePoint" />
            <mxPoint x="1260" y="200" as="targetPoint" />
          </mxGeometry>
        </mxCell>
        <mxCell id="RCL9OEUPucsu8Cq3E-YE-58" value="" style="endArrow=none;html=1;rounded=0;strokeWidth=0.5;dashed=1;dashPattern=1 1;" edge="1" parent="1" source="RCL9OEUPucsu8Cq3E-YE-43">
          <mxGeometry width="50" height="50" relative="1" as="geometry">
            <mxPoint x="1257" y="140" as="sourcePoint" />
            <mxPoint x="1250" y="190" as="targetPoint" />
          </mxGeometry>
        </mxCell>
        <mxCell id="RCL9OEUPucsu8Cq3E-YE-59" value="" style="endArrow=none;html=1;rounded=0;strokeWidth=0.5;dashed=1;dashPattern=1 1;entryX=0.59;entryY=0.95;entryDx=0;entryDy=0;entryPerimeter=0;exitX=0.7;exitY=0.93;exitDx=0;exitDy=0;exitPerimeter=0;" edge="1" parent="1" source="RCL9OEUPucsu8Cq3E-YE-39" target="RCL9OEUPucsu8Cq3E-YE-45">
          <mxGeometry width="50" height="50" relative="1" as="geometry">
            <mxPoint x="1267" y="150" as="sourcePoint" />
            <mxPoint x="1280" y="220" as="targetPoint" />
          </mxGeometry>
        </mxCell>
        <mxCell id="RCL9OEUPucsu8Cq3E-YE-60" value="" style="endArrow=none;html=1;rounded=0;strokeWidth=0.5;dashed=1;dashPattern=1 1;exitX=0.67;exitY=0.59;exitDx=0;exitDy=0;exitPerimeter=0;" edge="1" parent="1" source="RCL9OEUPucsu8Cq3E-YE-46">
          <mxGeometry width="50" height="50" relative="1" as="geometry">
            <mxPoint x="1277" y="160" as="sourcePoint" />
            <mxPoint x="1250" y="190" as="targetPoint" />
          </mxGeometry>
        </mxCell>
        <mxCell id="RCL9OEUPucsu8Cq3E-YE-61" value="" style="shape=waypoint;sketch=0;fillStyle=solid;size=6;pointerEvents=1;points=[];fillColor=none;resizable=0;rotatable=0;perimeter=centerPerimeter;snapToPoint=1;strokeWidth=0;" vertex="1" parent="1">
          <mxGeometry x="1200" y="170" width="20" height="20" as="geometry" />
        </mxCell>
        <mxCell id="RCL9OEUPucsu8Cq3E-YE-62" value="" style="shape=waypoint;sketch=0;fillStyle=solid;size=6;pointerEvents=1;points=[];fillColor=none;resizable=0;rotatable=0;perimeter=centerPerimeter;snapToPoint=1;strokeWidth=0;" vertex="1" parent="1">
          <mxGeometry x="1200" y="120" width="20" height="20" as="geometry" />
        </mxCell>
        <mxCell id="RCL9OEUPucsu8Cq3E-YE-63" value="" style="shape=waypoint;sketch=0;fillStyle=solid;size=6;pointerEvents=1;points=[];fillColor=none;resizable=0;rotatable=0;perimeter=centerPerimeter;snapToPoint=1;strokeWidth=0;" vertex="1" parent="1">
          <mxGeometry x="1240" y="90" width="20" height="20" as="geometry" />
        </mxCell>
        <mxCell id="RCL9OEUPucsu8Cq3E-YE-64" value="" style="shape=waypoint;sketch=0;fillStyle=solid;size=6;pointerEvents=1;points=[];fillColor=none;resizable=0;rotatable=0;perimeter=centerPerimeter;snapToPoint=1;strokeWidth=0;" vertex="1" parent="1">
          <mxGeometry x="1240" y="200" width="20" height="20" as="geometry" />
        </mxCell>
        <mxCell id="RCL9OEUPucsu8Cq3E-YE-65" value="" style="shape=waypoint;sketch=0;fillStyle=solid;size=6;pointerEvents=1;points=[];fillColor=none;resizable=0;rotatable=0;perimeter=centerPerimeter;snapToPoint=1;strokeWidth=0;" vertex="1" parent="1">
          <mxGeometry x="1300" y="190" width="20" height="20" as="geometry" />
        </mxCell>
        <mxCell id="RCL9OEUPucsu8Cq3E-YE-66" value="" style="shape=waypoint;sketch=0;fillStyle=solid;size=6;pointerEvents=1;points=[];fillColor=none;resizable=0;rotatable=0;perimeter=centerPerimeter;snapToPoint=1;strokeWidth=2;" vertex="1" parent="1">
          <mxGeometry x="1300" y="170" width="20" height="20" as="geometry" />
        </mxCell>
        <mxCell id="RCL9OEUPucsu8Cq3E-YE-67" value="" style="shape=waypoint;sketch=0;fillStyle=solid;size=6;pointerEvents=1;points=[];fillColor=none;resizable=0;rotatable=0;perimeter=centerPerimeter;snapToPoint=1;strokeWidth=2;" vertex="1" parent="1">
          <mxGeometry x="1300" y="170" width="20" height="20" as="geometry" />
        </mxCell>
        <mxCell id="RCL9OEUPucsu8Cq3E-YE-68" value="" style="shape=waypoint;sketch=0;fillStyle=solid;size=6;pointerEvents=1;points=[];fillColor=none;resizable=0;rotatable=0;perimeter=centerPerimeter;snapToPoint=1;strokeWidth=2;" vertex="1" parent="1">
          <mxGeometry x="1260" y="100" width="20" height="20" as="geometry" />
        </mxCell>
        <mxCell id="RCL9OEUPucsu8Cq3E-YE-69" value="" style="shape=waypoint;sketch=0;fillStyle=solid;size=6;pointerEvents=1;points=[];fillColor=none;resizable=0;rotatable=0;perimeter=centerPerimeter;snapToPoint=1;strokeWidth=2;" vertex="1" parent="1">
          <mxGeometry x="1240" y="140" width="20" height="20" as="geometry" />
        </mxCell>
        <mxCell id="RCL9OEUPucsu8Cq3E-YE-70" value="" style="shape=waypoint;sketch=0;fillStyle=solid;size=6;pointerEvents=1;points=[];fillColor=none;resizable=0;rotatable=0;perimeter=centerPerimeter;snapToPoint=1;strokeWidth=0;" vertex="1" parent="1">
          <mxGeometry x="1290" y="90" width="20" height="20" as="geometry" />
        </mxCell>
        <mxCell id="RCL9OEUPucsu8Cq3E-YE-71" value="" style="shape=waypoint;sketch=0;fillStyle=solid;size=6;pointerEvents=1;points=[];fillColor=none;resizable=0;rotatable=0;perimeter=centerPerimeter;snapToPoint=1;" vertex="1" parent="1">
          <mxGeometry x="1220" y="180" width="20" height="20" as="geometry" />
        </mxCell>
        <mxCell id="RCL9OEUPucsu8Cq3E-YE-72" value="" style="shape=waypoint;sketch=0;fillStyle=solid;size=6;pointerEvents=1;points=[];fillColor=none;resizable=0;rotatable=0;perimeter=centerPerimeter;snapToPoint=1;" vertex="1" parent="1">
          <mxGeometry x="1310" y="210" width="20" height="20" as="geometry" />
        </mxCell>
        <mxCell id="RCL9OEUPucsu8Cq3E-YE-73" value="" style="shape=waypoint;sketch=0;fillStyle=solid;size=6;pointerEvents=1;points=[];fillColor=none;resizable=0;rotatable=0;perimeter=centerPerimeter;snapToPoint=1;" vertex="1" parent="1">
          <mxGeometry x="1290" y="110" width="20" height="20" as="geometry" />
        </mxCell>
        <mxCell id="RCL9OEUPucsu8Cq3E-YE-74" value="" style="whiteSpace=wrap;html=1;aspect=fixed;fillColor=none;dashed=1;dashPattern=1 2;strokeWidth=0.5;" vertex="1" parent="1">
          <mxGeometry x="510" y="160" width="80" height="80" as="geometry" />
        </mxCell>
        <mxCell id="RCL9OEUPucsu8Cq3E-YE-75" value="" style="endArrow=none;html=1;rounded=0;strokeWidth=0.2;" edge="1" parent="1">
          <mxGeometry width="50" height="50" relative="1" as="geometry">
            <mxPoint x="510" y="150" as="sourcePoint" />
            <mxPoint x="590" y="150" as="targetPoint" />
          </mxGeometry>
        </mxCell>
        <mxCell id="RCL9OEUPucsu8Cq3E-YE-76" value="" style="endArrow=none;html=1;rounded=0;strokeWidth=0.2;" edge="1" parent="1">
          <mxGeometry width="50" height="50" relative="1" as="geometry">
            <mxPoint x="510" y="250" as="sourcePoint" />
            <mxPoint x="590" y="250" as="targetPoint" />
          </mxGeometry>
        </mxCell>
        <mxCell id="RCL9OEUPucsu8Cq3E-YE-77" value="" style="endArrow=none;html=1;rounded=0;strokeWidth=0.2;" edge="1" parent="1">
          <mxGeometry width="50" height="50" relative="1" as="geometry">
            <mxPoint x="600" y="160" as="sourcePoint" />
            <mxPoint x="600" y="240" as="targetPoint" />
          </mxGeometry>
        </mxCell>
        <mxCell id="RCL9OEUPucsu8Cq3E-YE-78" value="" style="endArrow=none;html=1;rounded=0;strokeWidth=0.2;" edge="1" parent="1">
          <mxGeometry width="50" height="50" relative="1" as="geometry">
            <mxPoint x="500" y="160" as="sourcePoint" />
            <mxPoint x="500" y="240" as="targetPoint" />
          </mxGeometry>
        </mxCell>
        <mxCell id="RCL9OEUPucsu8Cq3E-YE-79" value="" style="verticalLabelPosition=bottom;verticalAlign=top;html=1;shape=mxgraph.basic.arc;startAngle=0.75;endAngle=0;strokeWidth=0.2;" vertex="1" parent="1">
          <mxGeometry x="500" y="150" width="20" height="20" as="geometry" />
        </mxCell>
        <mxCell id="RCL9OEUPucsu8Cq3E-YE-80" value="" style="verticalLabelPosition=bottom;verticalAlign=top;html=1;shape=mxgraph.basic.arc;startAngle=0.75;endAngle=0;strokeWidth=0.2;flipH=1;flipV=1;" vertex="1" parent="1">
          <mxGeometry x="580" y="230" width="20" height="20" as="geometry" />
        </mxCell>
        <mxCell id="RCL9OEUPucsu8Cq3E-YE-81" value="" style="verticalLabelPosition=bottom;verticalAlign=top;html=1;shape=mxgraph.basic.arc;startAngle=0.75;endAngle=0;strokeWidth=0.2;flipV=1;" vertex="1" parent="1">
          <mxGeometry x="500" y="230" width="20" height="20" as="geometry" />
        </mxCell>
        <mxCell id="RCL9OEUPucsu8Cq3E-YE-82" value="" style="verticalLabelPosition=bottom;verticalAlign=top;html=1;shape=mxgraph.basic.arc;startAngle=0.75;endAngle=0;strokeWidth=0.2;flipH=1;" vertex="1" parent="1">
          <mxGeometry x="580" y="150" width="20" height="20" as="geometry" />
        </mxCell>
        <mxCell id="RCL9OEUPucsu8Cq3E-YE-83" value="" style="whiteSpace=wrap;html=1;aspect=fixed;fillColor=#dae8fc;dashed=1;dashPattern=1 2;strokeWidth=0.5;strokeColor=#6c8ebf;container=0;" vertex="1" parent="1">
          <mxGeometry x="780" y="190" width="80" height="80" as="geometry" />
        </mxCell>
        <mxCell id="RCL9OEUPucsu8Cq3E-YE-84" value="" style="endArrow=none;html=1;rounded=0;strokeWidth=0.2;" edge="1" parent="1">
          <mxGeometry width="50" height="50" relative="1" as="geometry">
            <mxPoint x="780" y="180" as="sourcePoint" />
            <mxPoint x="860" y="180" as="targetPoint" />
          </mxGeometry>
        </mxCell>
        <mxCell id="RCL9OEUPucsu8Cq3E-YE-85" value="" style="endArrow=none;html=1;rounded=0;strokeWidth=0.2;" edge="1" parent="1">
          <mxGeometry width="50" height="50" relative="1" as="geometry">
            <mxPoint x="780" y="280" as="sourcePoint" />
            <mxPoint x="860" y="280" as="targetPoint" />
          </mxGeometry>
        </mxCell>
        <mxCell id="RCL9OEUPucsu8Cq3E-YE-86" value="" style="endArrow=none;html=1;rounded=0;strokeWidth=0.2;" edge="1" parent="1">
          <mxGeometry width="50" height="50" relative="1" as="geometry">
            <mxPoint x="870" y="190" as="sourcePoint" />
            <mxPoint x="870" y="270" as="targetPoint" />
          </mxGeometry>
        </mxCell>
        <mxCell id="RCL9OEUPucsu8Cq3E-YE-87" value="" style="endArrow=none;html=1;rounded=0;strokeWidth=0.2;" edge="1" parent="1">
          <mxGeometry width="50" height="50" relative="1" as="geometry">
            <mxPoint x="770" y="190" as="sourcePoint" />
            <mxPoint x="770" y="270" as="targetPoint" />
          </mxGeometry>
        </mxCell>
        <mxCell id="RCL9OEUPucsu8Cq3E-YE-88" value="" style="verticalLabelPosition=bottom;verticalAlign=top;html=1;shape=mxgraph.basic.arc;startAngle=0.75;endAngle=0;strokeWidth=0.2;container=0;" vertex="1" parent="1">
          <mxGeometry x="770" y="180" width="20" height="20" as="geometry" />
        </mxCell>
        <mxCell id="RCL9OEUPucsu8Cq3E-YE-89" value="" style="verticalLabelPosition=bottom;verticalAlign=top;html=1;shape=mxgraph.basic.arc;startAngle=0.75;endAngle=0;strokeWidth=0.2;flipH=1;flipV=1;container=0;" vertex="1" parent="1">
          <mxGeometry x="850" y="260" width="20" height="20" as="geometry" />
        </mxCell>
        <mxCell id="RCL9OEUPucsu8Cq3E-YE-90" value="" style="verticalLabelPosition=bottom;verticalAlign=top;html=1;shape=mxgraph.basic.arc;startAngle=0.75;endAngle=0;strokeWidth=0.2;flipV=1;container=0;" vertex="1" parent="1">
          <mxGeometry x="770" y="260" width="20" height="20" as="geometry" />
        </mxCell>
        <mxCell id="RCL9OEUPucsu8Cq3E-YE-91" value="" style="verticalLabelPosition=bottom;verticalAlign=top;html=1;shape=mxgraph.basic.arc;startAngle=0.75;endAngle=0;strokeWidth=0.2;flipH=1;container=0;" vertex="1" parent="1">
          <mxGeometry x="850" y="180" width="20" height="20" as="geometry" />
        </mxCell>
        <mxCell id="RCL9OEUPucsu8Cq3E-YE-92" value="" style="group;glass=0;" vertex="1" connectable="0" parent="1">
          <mxGeometry x="770" y="59.99999999999997" width="100" height="100.23000000000002" as="geometry" />
        </mxCell>
        <mxCell id="RCL9OEUPucsu8Cq3E-YE-93" value="" style="ellipse;whiteSpace=wrap;html=1;aspect=fixed;strokeColor=#d6b656;fillColor=#fff2cc;" vertex="1" parent="RCL9OEUPucsu8Cq3E-YE-92">
          <mxGeometry x="80" y="80.23000000000002" width="20" height="20" as="geometry" />
        </mxCell>
        <mxCell id="RCL9OEUPucsu8Cq3E-YE-94" value="" style="ellipse;whiteSpace=wrap;html=1;aspect=fixed;strokeColor=#d6b656;fillColor=#fff2cc;" vertex="1" parent="RCL9OEUPucsu8Cq3E-YE-92">
          <mxGeometry y="80.23000000000002" width="20" height="20" as="geometry" />
        </mxCell>
        <mxCell id="RCL9OEUPucsu8Cq3E-YE-95" value="" style="ellipse;whiteSpace=wrap;html=1;aspect=fixed;strokeColor=#d6b656;fillColor=#fff2cc;" vertex="1" parent="RCL9OEUPucsu8Cq3E-YE-92">
          <mxGeometry y="0.2300000000000182" width="20" height="20" as="geometry" />
        </mxCell>
        <mxCell id="RCL9OEUPucsu8Cq3E-YE-96" value="" style="ellipse;whiteSpace=wrap;html=1;aspect=fixed;strokeColor=#d6b656;fillColor=#fff2cc;" vertex="1" parent="RCL9OEUPucsu8Cq3E-YE-92">
          <mxGeometry x="80" y="0.2300000000000182" width="20" height="20" as="geometry" />
        </mxCell>
        <mxCell id="RCL9OEUPucsu8Cq3E-YE-97" value="" style="whiteSpace=wrap;html=1;aspect=fixed;fillColor=#fff2cc;strokeColor=#d6b656;dashed=1;dashPattern=1 2;" vertex="1" parent="RCL9OEUPucsu8Cq3E-YE-92">
          <mxGeometry x="10" y="10.230000000000018" width="80" height="80" as="geometry" />
        </mxCell>
        <mxCell id="RCL9OEUPucsu8Cq3E-YE-98" value="" style="rounded=0;whiteSpace=wrap;html=1;fillColor=#fff2cc;strokeColor=#d6b656;dashed=1;dashPattern=1 2;" vertex="1" parent="RCL9OEUPucsu8Cq3E-YE-92">
          <mxGeometry x="10" y="0.2300000000000182" width="80" height="10" as="geometry" />
        </mxCell>
        <mxCell id="RCL9OEUPucsu8Cq3E-YE-99" value="" style="rounded=0;whiteSpace=wrap;html=1;fillColor=#fff2cc;strokeColor=#d6b656;dashed=1;dashPattern=1 2;" vertex="1" parent="RCL9OEUPucsu8Cq3E-YE-92">
          <mxGeometry x="10" y="90.23000000000002" width="80" height="10" as="geometry" />
        </mxCell>
        <mxCell id="RCL9OEUPucsu8Cq3E-YE-100" value="" style="rounded=0;whiteSpace=wrap;html=1;fillColor=#fff2cc;strokeColor=#d6b656;dashed=1;dashPattern=1 2;direction=south;" vertex="1" parent="RCL9OEUPucsu8Cq3E-YE-92">
          <mxGeometry y="10.230000000000018" width="10" height="80" as="geometry" />
        </mxCell>
        <mxCell id="RCL9OEUPucsu8Cq3E-YE-101" value="" style="rounded=0;whiteSpace=wrap;html=1;fillColor=#fff2cc;strokeColor=#d6b656;dashed=1;dashPattern=1 2;direction=south;" vertex="1" parent="RCL9OEUPucsu8Cq3E-YE-92">
          <mxGeometry x="90" y="10.230000000000018" width="10" height="80" as="geometry" />
        </mxCell>
        <mxCell id="RCL9OEUPucsu8Cq3E-YE-102" value="" style="endArrow=none;html=1;rounded=0;strokeWidth=0.2;" edge="1" parent="RCL9OEUPucsu8Cq3E-YE-92">
          <mxGeometry width="50" height="50" relative="1" as="geometry">
            <mxPoint x="10" as="sourcePoint" />
            <mxPoint x="90" as="targetPoint" />
          </mxGeometry>
        </mxCell>
        <mxCell id="RCL9OEUPucsu8Cq3E-YE-103" value="" style="endArrow=none;html=1;rounded=0;strokeWidth=0.2;" edge="1" parent="RCL9OEUPucsu8Cq3E-YE-92">
          <mxGeometry width="50" height="50" relative="1" as="geometry">
            <mxPoint x="10" y="100" as="sourcePoint" />
            <mxPoint x="90" y="100" as="targetPoint" />
          </mxGeometry>
        </mxCell>
        <mxCell id="RCL9OEUPucsu8Cq3E-YE-104" value="" style="endArrow=none;html=1;rounded=0;strokeWidth=0.2;" edge="1" parent="RCL9OEUPucsu8Cq3E-YE-92">
          <mxGeometry width="50" height="50" relative="1" as="geometry">
            <mxPoint x="100" y="10" as="sourcePoint" />
            <mxPoint x="100" y="90" as="targetPoint" />
          </mxGeometry>
        </mxCell>
        <mxCell id="RCL9OEUPucsu8Cq3E-YE-105" value="" style="endArrow=none;html=1;rounded=0;strokeWidth=0.2;" edge="1" parent="RCL9OEUPucsu8Cq3E-YE-92">
          <mxGeometry width="50" height="50" relative="1" as="geometry">
            <mxPoint y="10" as="sourcePoint" />
            <mxPoint y="90" as="targetPoint" />
          </mxGeometry>
        </mxCell>
        <mxCell id="RCL9OEUPucsu8Cq3E-YE-106" value="" style="verticalLabelPosition=bottom;verticalAlign=top;html=1;shape=mxgraph.basic.arc;startAngle=0.75;endAngle=0;strokeWidth=0.2;container=0;" vertex="1" parent="RCL9OEUPucsu8Cq3E-YE-92">
          <mxGeometry width="20" height="20" as="geometry" />
        </mxCell>
        <mxCell id="RCL9OEUPucsu8Cq3E-YE-107" value="" style="verticalLabelPosition=bottom;verticalAlign=top;html=1;shape=mxgraph.basic.arc;startAngle=0.75;endAngle=0;strokeWidth=0.2;flipH=1;flipV=1;container=0;" vertex="1" parent="RCL9OEUPucsu8Cq3E-YE-92">
          <mxGeometry x="80" y="80" width="20" height="20" as="geometry" />
        </mxCell>
        <mxCell id="RCL9OEUPucsu8Cq3E-YE-108" value="" style="verticalLabelPosition=bottom;verticalAlign=top;html=1;shape=mxgraph.basic.arc;startAngle=0.75;endAngle=0;strokeWidth=0.2;flipV=1;container=0;" vertex="1" parent="RCL9OEUPucsu8Cq3E-YE-92">
          <mxGeometry y="80" width="20" height="20" as="geometry" />
        </mxCell>
        <mxCell id="RCL9OEUPucsu8Cq3E-YE-109" value="" style="verticalLabelPosition=bottom;verticalAlign=top;html=1;shape=mxgraph.basic.arc;startAngle=0.75;endAngle=0;strokeWidth=0.2;flipH=1;container=0;fillColor=#fff2cc;strokeColor=#d6b656;" vertex="1" parent="RCL9OEUPucsu8Cq3E-YE-92">
          <mxGeometry x="80" width="20" height="20" as="geometry" />
        </mxCell>
        <mxCell id="RCL9OEUPucsu8Cq3E-YE-110" value="" style="ellipse;whiteSpace=wrap;html=1;aspect=fixed;strokeColor=none;fillColor=#dae8fc;fillStyle=dots;shadow=0;" vertex="1" parent="1">
          <mxGeometry x="790" y="390" width="20" height="20" as="geometry" />
        </mxCell>
        <mxCell id="RCL9OEUPucsu8Cq3E-YE-111" value="" style="ellipse;whiteSpace=wrap;html=1;aspect=fixed;strokeColor=none;fillColor=#dae8fc;fillStyle=dots;shadow=0;" vertex="1" parent="1">
          <mxGeometry x="710" y="390" width="20" height="20" as="geometry" />
        </mxCell>
        <mxCell id="RCL9OEUPucsu8Cq3E-YE-112" value="" style="ellipse;whiteSpace=wrap;html=1;aspect=fixed;strokeColor=none;fillColor=#dae8fc;fillStyle=dots;shadow=0;" vertex="1" parent="1">
          <mxGeometry x="710" y="310" width="20" height="20" as="geometry" />
        </mxCell>
        <mxCell id="RCL9OEUPucsu8Cq3E-YE-113" value="" style="ellipse;whiteSpace=wrap;html=1;aspect=fixed;strokeColor=none;fillColor=#dae8fc;fillStyle=dots;shadow=0;" vertex="1" parent="1">
          <mxGeometry x="790" y="310" width="20" height="20" as="geometry" />
        </mxCell>
        <mxCell id="RCL9OEUPucsu8Cq3E-YE-114" value="" style="whiteSpace=wrap;html=1;aspect=fixed;fillColor=#dae8fc;strokeColor=#6c8ebf;dashed=1;dashPattern=1 2;fillStyle=dots;shadow=0;" vertex="1" parent="1">
          <mxGeometry x="720" y="320" width="80" height="80" as="geometry" />
        </mxCell>
        <mxCell id="RCL9OEUPucsu8Cq3E-YE-115" value="" style="rounded=0;whiteSpace=wrap;html=1;fillColor=#dae8fc;strokeColor=none;dashed=1;dashPattern=1 2;fillStyle=dots;shadow=0;" vertex="1" parent="1">
          <mxGeometry x="720" y="310" width="80" height="10" as="geometry" />
        </mxCell>
        <mxCell id="RCL9OEUPucsu8Cq3E-YE-116" value="" style="rounded=0;whiteSpace=wrap;html=1;fillColor=#dae8fc;strokeColor=none;dashed=1;dashPattern=1 2;fillStyle=dots;shadow=0;" vertex="1" parent="1">
          <mxGeometry x="720" y="400" width="80" height="10" as="geometry" />
        </mxCell>
        <mxCell id="RCL9OEUPucsu8Cq3E-YE-117" value="" style="endArrow=none;html=1;rounded=0;strokeWidth=1;shadow=0;shadowOpacity=100;shadowOffsetX=20;" edge="1" parent="1">
          <mxGeometry width="50" height="50" relative="1" as="geometry">
            <mxPoint x="720" y="309.77" as="sourcePoint" />
            <mxPoint x="800" y="309.77" as="targetPoint" />
          </mxGeometry>
        </mxCell>
        <mxCell id="RCL9OEUPucsu8Cq3E-YE-118" value="" style="endArrow=none;html=1;rounded=0;strokeWidth=1;shadow=0;shadowOpacity=100;shadowOffsetX=20;" edge="1" parent="1">
          <mxGeometry width="50" height="50" relative="1" as="geometry">
            <mxPoint x="720" y="409.77" as="sourcePoint" />
            <mxPoint x="800" y="409.77" as="targetPoint" />
          </mxGeometry>
        </mxCell>
        <mxCell id="RCL9OEUPucsu8Cq3E-YE-119" value="" style="endArrow=none;html=1;rounded=0;strokeWidth=1;shadow=0;shadowBlur=2;shadowOpacity=100;shadowOffsetX=2;shadowOffsetY=3;" edge="1" parent="1">
          <mxGeometry width="50" height="50" relative="1" as="geometry">
            <mxPoint x="810" y="319.77" as="sourcePoint" />
            <mxPoint x="810" y="399.77" as="targetPoint" />
          </mxGeometry>
        </mxCell>
        <mxCell id="RCL9OEUPucsu8Cq3E-YE-120" value="" style="endArrow=none;html=1;rounded=0;strokeWidth=1;shadow=0;" edge="1" parent="1">
          <mxGeometry width="50" height="50" relative="1" as="geometry">
            <mxPoint x="710" y="319.77" as="sourcePoint" />
            <mxPoint x="710" y="399.77" as="targetPoint" />
          </mxGeometry>
        </mxCell>
        <mxCell id="RCL9OEUPucsu8Cq3E-YE-121" value="" style="verticalLabelPosition=bottom;verticalAlign=top;html=1;shape=mxgraph.basic.arc;startAngle=0.75;endAngle=0;strokeWidth=1;container=0;shadow=0;" vertex="1" parent="1">
          <mxGeometry x="710" y="309.77" width="20" height="20" as="geometry" />
        </mxCell>
        <mxCell id="RCL9OEUPucsu8Cq3E-YE-122" value="" style="verticalLabelPosition=bottom;verticalAlign=top;html=1;shape=mxgraph.basic.arc;startAngle=0.75;endAngle=0;strokeWidth=1;flipH=1;flipV=1;container=0;shadow=0;shadowBlur=2;shadowOpacity=100;shadowOffsetX=2;shadowOffsetY=3;" vertex="1" parent="1">
          <mxGeometry x="790" y="389.77" width="20" height="20" as="geometry" />
        </mxCell>
        <mxCell id="RCL9OEUPucsu8Cq3E-YE-123" value="" style="verticalLabelPosition=bottom;verticalAlign=top;html=1;shape=mxgraph.basic.arc;startAngle=0.75;endAngle=0;strokeWidth=1;flipV=1;container=0;fillStyle=hatch;shadow=0;" vertex="1" parent="1">
          <mxGeometry x="710" y="389.77" width="20" height="20" as="geometry" />
        </mxCell>
        <mxCell id="RCL9OEUPucsu8Cq3E-YE-124" value="" style="verticalLabelPosition=bottom;verticalAlign=top;html=1;shape=mxgraph.basic.arc;startAngle=0.75;endAngle=0;strokeWidth=1;flipH=1;container=0;fillStyle=dots;shadow=0;shadowBlur=2;shadowOpacity=100;shadowOffsetX=2;direction=east;" vertex="1" parent="1">
          <mxGeometry x="790" y="309.77" width="20" height="20" as="geometry" />
        </mxCell>
        <mxCell id="RCL9OEUPucsu8Cq3E-YE-125" value="" style="rounded=0;whiteSpace=wrap;html=1;fillColor=#dae8fc;strokeColor=none;dashed=1;dashPattern=1 2;fillStyle=dots;shadow=0;" vertex="1" parent="1">
          <mxGeometry x="800" y="320" width="10" height="80" as="geometry" />
        </mxCell>
        <mxCell id="RCL9OEUPucsu8Cq3E-YE-126" value="" style="rounded=0;whiteSpace=wrap;html=1;fillColor=#dae8fc;strokeColor=none;dashed=1;dashPattern=1 2;fillStyle=dots;shadow=0;" vertex="1" parent="1">
          <mxGeometry x="710" y="319.89" width="10" height="80" as="geometry" />
        </mxCell>
        <mxCell id="RCL9OEUPucsu8Cq3E-YE-127" value="" style="ellipse;whiteSpace=wrap;html=1;aspect=fixed;strokeColor=none;fillColor=#fff2cc;fillStyle=zigzag-line;direction=east;" vertex="1" parent="1">
          <mxGeometry x="910" y="390.23" width="20" height="20" as="geometry" />
        </mxCell>
        <mxCell id="RCL9OEUPucsu8Cq3E-YE-128" value="" style="ellipse;whiteSpace=wrap;html=1;aspect=fixed;strokeColor=none;fillColor=#fff2cc;fillStyle=zigzag-line;" vertex="1" parent="1">
          <mxGeometry x="830" y="390.23" width="20" height="20" as="geometry" />
        </mxCell>
        <mxCell id="RCL9OEUPucsu8Cq3E-YE-129" value="" style="ellipse;whiteSpace=wrap;html=1;aspect=fixed;strokeColor=none;fillColor=#fff2cc;fillStyle=zigzag-line;" vertex="1" parent="1">
          <mxGeometry x="830" y="310.23" width="20" height="20" as="geometry" />
        </mxCell>
        <mxCell id="RCL9OEUPucsu8Cq3E-YE-130" value="" style="ellipse;whiteSpace=wrap;html=1;aspect=fixed;strokeColor=none;fillColor=#fff2cc;fillStyle=zigzag-line;direction=east;" vertex="1" parent="1">
          <mxGeometry x="910" y="310.23" width="20" height="20" as="geometry" />
        </mxCell>
        <mxCell id="RCL9OEUPucsu8Cq3E-YE-131" value="" style="whiteSpace=wrap;html=1;aspect=fixed;fillColor=#fff2cc;strokeColor=#d6b656;dashed=1;dashPattern=1 2;fillStyle=zigzag-line;direction=east;" vertex="1" parent="1">
          <mxGeometry x="840" y="320.23" width="80" height="80" as="geometry" />
        </mxCell>
        <mxCell id="RCL9OEUPucsu8Cq3E-YE-132" value="" style="rounded=0;whiteSpace=wrap;html=1;fillColor=#fff2cc;strokeColor=#d6b656;dashed=1;dashPattern=1 2;fillStyle=zigzag-line;" vertex="1" parent="1">
          <mxGeometry x="840" y="310.23" width="80" height="10" as="geometry" />
        </mxCell>
        <mxCell id="RCL9OEUPucsu8Cq3E-YE-133" value="" style="rounded=0;whiteSpace=wrap;html=1;fillColor=#fff2cc;strokeColor=#d6b656;dashed=1;dashPattern=1 2;fillStyle=zigzag-line;" vertex="1" parent="1">
          <mxGeometry x="840" y="400.23" width="80" height="10" as="geometry" />
        </mxCell>
        <mxCell id="RCL9OEUPucsu8Cq3E-YE-134" value="" style="endArrow=none;html=1;rounded=0;strokeWidth=1;" edge="1" parent="1">
          <mxGeometry width="50" height="50" relative="1" as="geometry">
            <mxPoint x="840" y="310" as="sourcePoint" />
            <mxPoint x="920" y="310" as="targetPoint" />
          </mxGeometry>
        </mxCell>
        <mxCell id="RCL9OEUPucsu8Cq3E-YE-135" value="" style="endArrow=none;html=1;rounded=0;strokeWidth=1;" edge="1" parent="1">
          <mxGeometry width="50" height="50" relative="1" as="geometry">
            <mxPoint x="840" y="410" as="sourcePoint" />
            <mxPoint x="920" y="410" as="targetPoint" />
          </mxGeometry>
        </mxCell>
        <mxCell id="RCL9OEUPucsu8Cq3E-YE-136" value="" style="endArrow=none;html=1;rounded=0;strokeWidth=1;" edge="1" parent="1">
          <mxGeometry width="50" height="50" relative="1" as="geometry">
            <mxPoint x="930" y="320" as="sourcePoint" />
            <mxPoint x="930" y="400" as="targetPoint" />
          </mxGeometry>
        </mxCell>
        <mxCell id="RCL9OEUPucsu8Cq3E-YE-137" value="" style="endArrow=none;html=1;rounded=0;strokeWidth=1;" edge="1" parent="1">
          <mxGeometry width="50" height="50" relative="1" as="geometry">
            <mxPoint x="830" y="320" as="sourcePoint" />
            <mxPoint x="830" y="400" as="targetPoint" />
          </mxGeometry>
        </mxCell>
        <mxCell id="RCL9OEUPucsu8Cq3E-YE-138" value="" style="verticalLabelPosition=bottom;verticalAlign=top;html=1;shape=mxgraph.basic.arc;startAngle=0.75;endAngle=0;strokeWidth=1;container=0;fillStyle=zigzag-line;" vertex="1" parent="1">
          <mxGeometry x="830" y="310" width="20" height="20" as="geometry" />
        </mxCell>
        <mxCell id="RCL9OEUPucsu8Cq3E-YE-139" value="" style="verticalLabelPosition=bottom;verticalAlign=top;html=1;shape=mxgraph.basic.arc;startAngle=0.75;endAngle=0;strokeWidth=1;flipH=1;flipV=1;container=0;strokeColor=default;" vertex="1" parent="1">
          <mxGeometry x="910" y="390" width="20" height="20" as="geometry" />
        </mxCell>
        <mxCell id="RCL9OEUPucsu8Cq3E-YE-140" value="" style="verticalLabelPosition=bottom;verticalAlign=top;html=1;shape=mxgraph.basic.arc;startAngle=0.75;endAngle=0;strokeWidth=1;flipV=1;container=0;" vertex="1" parent="1">
          <mxGeometry x="830" y="390" width="20" height="20" as="geometry" />
        </mxCell>
        <mxCell id="RCL9OEUPucsu8Cq3E-YE-141" value="" style="verticalLabelPosition=bottom;verticalAlign=top;html=1;shape=mxgraph.basic.arc;startAngle=0.75;endAngle=0;strokeWidth=0.2;flipH=1;container=0;fillColor=#fff2cc;strokeColor=#d6b656;" vertex="1" parent="1">
          <mxGeometry x="910" y="310" width="20" height="20" as="geometry" />
        </mxCell>
        <mxCell id="RCL9OEUPucsu8Cq3E-YE-142" value="" style="rounded=0;whiteSpace=wrap;html=1;fillColor=#fff2cc;strokeColor=#d6b656;dashed=1;dashPattern=1 2;fillStyle=zigzag-line;" vertex="1" parent="1">
          <mxGeometry x="920" y="320.11" width="10" height="80" as="geometry" />
        </mxCell>
        <mxCell id="RCL9OEUPucsu8Cq3E-YE-143" value="" style="rounded=0;whiteSpace=wrap;html=1;fillColor=#fff2cc;strokeColor=#d6b656;dashed=1;dashPattern=1 2;fillStyle=zigzag-line;" vertex="1" parent="1">
          <mxGeometry x="830" y="320.11" width="10" height="80" as="geometry" />
        </mxCell>
        <mxCell id="RCL9OEUPucsu8Cq3E-YE-144" value="" style="verticalLabelPosition=bottom;verticalAlign=top;html=1;shape=mxgraph.basic.arc;startAngle=0.75;endAngle=0;strokeWidth=1;flipH=1;container=0;" vertex="1" parent="1">
          <mxGeometry x="910" y="310.23" width="20" height="20" as="geometry" />
        </mxCell>
        <mxCell id="RCL9OEUPucsu8Cq3E-YE-145" value="" style="group" vertex="1" connectable="0" parent="1">
          <mxGeometry x="1540" y="319.89" width="360" height="200.11" as="geometry" />
        </mxCell>
        <mxCell id="RCL9OEUPucsu8Cq3E-YE-146" value="" style="ellipse;whiteSpace=wrap;html=1;aspect=fixed;strokeColor=none;fillColor=#dae8fc;fillStyle=dots;shadow=0;" vertex="1" parent="RCL9OEUPucsu8Cq3E-YE-145">
          <mxGeometry x="160" y="160.1798393694503" width="39.93016063054973" height="39.93016063054973" as="geometry" />
        </mxCell>
        <mxCell id="RCL9OEUPucsu8Cq3E-YE-147" value="" style="ellipse;whiteSpace=wrap;html=1;aspect=fixed;strokeColor=none;fillColor=#dae8fc;fillStyle=dots;shadow=0;" vertex="1" parent="RCL9OEUPucsu8Cq3E-YE-145">
          <mxGeometry y="160.1798393694503" width="39.93016063054973" height="39.93016063054973" as="geometry" />
        </mxCell>
        <mxCell id="RCL9OEUPucsu8Cq3E-YE-148" value="" style="ellipse;whiteSpace=wrap;html=1;aspect=fixed;strokeColor=none;fillColor=#dae8fc;fillStyle=dots;shadow=0;" vertex="1" parent="RCL9OEUPucsu8Cq3E-YE-145">
          <mxGeometry y="0.45919684725135823" width="39.93016063054973" height="39.93016063054973" as="geometry" />
        </mxCell>
        <mxCell id="RCL9OEUPucsu8Cq3E-YE-149" value="" style="ellipse;whiteSpace=wrap;html=1;aspect=fixed;strokeColor=none;fillColor=#dae8fc;fillStyle=dots;shadow=0;" vertex="1" parent="RCL9OEUPucsu8Cq3E-YE-145">
          <mxGeometry x="160" y="0.45919684725135823" width="39.93016063054973" height="39.93016063054973" as="geometry" />
        </mxCell>
        <mxCell id="RCL9OEUPucsu8Cq3E-YE-150" value="" style="whiteSpace=wrap;html=1;aspect=fixed;fillColor=#dae8fc;strokeColor=#6c8ebf;dashed=1;dashPattern=1 2;fillStyle=dots;shadow=0;" vertex="1" parent="RCL9OEUPucsu8Cq3E-YE-145">
          <mxGeometry x="20" y="20.424277162526224" width="159.72064252219892" height="159.72064252219892" as="geometry" />
        </mxCell>
        <mxCell id="RCL9OEUPucsu8Cq3E-YE-151" value="" style="rounded=0;whiteSpace=wrap;html=1;fillColor=#dae8fc;strokeColor=none;dashed=1;dashPattern=1 2;fillStyle=dots;shadow=0;" vertex="1" parent="RCL9OEUPucsu8Cq3E-YE-145">
          <mxGeometry x="20" y="0.45919684725135823" width="160" height="19.965080315274864" as="geometry" />
        </mxCell>
        <mxCell id="RCL9OEUPucsu8Cq3E-YE-152" value="" style="rounded=0;whiteSpace=wrap;html=1;fillColor=#dae8fc;strokeColor=none;dashed=1;dashPattern=1 2;fillStyle=dots;shadow=0;" vertex="1" parent="RCL9OEUPucsu8Cq3E-YE-145">
          <mxGeometry x="20" y="180.14491968472515" width="160" height="19.965080315274864" as="geometry" />
        </mxCell>
        <mxCell id="RCL9OEUPucsu8Cq3E-YE-153" value="" style="endArrow=none;html=1;rounded=0;strokeWidth=1;shadow=0;shadowOpacity=100;shadowOffsetX=20;" edge="1" parent="RCL9OEUPucsu8Cq3E-YE-145">
          <mxGeometry width="50" height="50" relative="1" as="geometry">
            <mxPoint x="20" as="sourcePoint" />
            <mxPoint x="180" as="targetPoint" />
          </mxGeometry>
        </mxCell>
        <mxCell id="RCL9OEUPucsu8Cq3E-YE-154" value="" style="endArrow=none;html=1;rounded=0;strokeWidth=1;shadow=0;shadowOpacity=100;shadowOffsetX=20;" edge="1" parent="RCL9OEUPucsu8Cq3E-YE-145">
          <mxGeometry width="50" height="50" relative="1" as="geometry">
            <mxPoint x="20" y="199.65080315274867" as="sourcePoint" />
            <mxPoint x="180" y="199.65080315274867" as="targetPoint" />
          </mxGeometry>
        </mxCell>
        <mxCell id="RCL9OEUPucsu8Cq3E-YE-155" value="" style="endArrow=none;html=1;rounded=0;strokeWidth=1;shadow=0;shadowBlur=2;shadowOpacity=100;shadowOffsetX=2;shadowOffsetY=3;" edge="1" parent="RCL9OEUPucsu8Cq3E-YE-145">
          <mxGeometry width="50" height="50" relative="1" as="geometry">
            <mxPoint x="200" y="19.965080315274864" as="sourcePoint" />
            <mxPoint x="200" y="179.6857228374738" as="targetPoint" />
          </mxGeometry>
        </mxCell>
        <mxCell id="RCL9OEUPucsu8Cq3E-YE-156" value="" style="endArrow=none;html=1;rounded=0;strokeWidth=1;shadow=0;" edge="1" parent="RCL9OEUPucsu8Cq3E-YE-145">
          <mxGeometry width="50" height="50" relative="1" as="geometry">
            <mxPoint y="19.965080315274864" as="sourcePoint" />
            <mxPoint y="179.6857228374738" as="targetPoint" />
          </mxGeometry>
        </mxCell>
        <mxCell id="RCL9OEUPucsu8Cq3E-YE-157" value="" style="verticalLabelPosition=bottom;verticalAlign=top;html=1;shape=mxgraph.basic.arc;startAngle=0.75;endAngle=0;strokeWidth=1;container=0;shadow=0;" vertex="1" parent="RCL9OEUPucsu8Cq3E-YE-145">
          <mxGeometry width="40" height="39.93016063054973" as="geometry" />
        </mxCell>
        <mxCell id="RCL9OEUPucsu8Cq3E-YE-158" value="" style="verticalLabelPosition=bottom;verticalAlign=top;html=1;shape=mxgraph.basic.arc;startAngle=0.75;endAngle=0;strokeWidth=1;flipH=1;flipV=1;container=0;shadow=0;shadowBlur=2;shadowOpacity=100;shadowOffsetX=2;shadowOffsetY=3;" vertex="1" parent="RCL9OEUPucsu8Cq3E-YE-145">
          <mxGeometry x="160" y="159.72064252219892" width="40" height="39.93016063054973" as="geometry" />
        </mxCell>
        <mxCell id="RCL9OEUPucsu8Cq3E-YE-159" value="" style="verticalLabelPosition=bottom;verticalAlign=top;html=1;shape=mxgraph.basic.arc;startAngle=0.75;endAngle=0;strokeWidth=1;flipV=1;container=0;fillStyle=hatch;shadow=0;" vertex="1" parent="RCL9OEUPucsu8Cq3E-YE-145">
          <mxGeometry y="159.72064252219892" width="40" height="39.93016063054973" as="geometry" />
        </mxCell>
        <mxCell id="RCL9OEUPucsu8Cq3E-YE-160" value="" style="verticalLabelPosition=bottom;verticalAlign=top;html=1;shape=mxgraph.basic.arc;startAngle=0.75;endAngle=0;strokeWidth=1;flipH=1;container=0;fillStyle=dots;shadow=0;shadowBlur=2;shadowOpacity=100;shadowOffsetX=2;direction=east;" vertex="1" parent="RCL9OEUPucsu8Cq3E-YE-145">
          <mxGeometry x="160" width="40" height="39.93016063054973" as="geometry" />
        </mxCell>
        <mxCell id="RCL9OEUPucsu8Cq3E-YE-161" value="" style="rounded=0;whiteSpace=wrap;html=1;fillColor=#dae8fc;strokeColor=none;dashed=1;dashPattern=1 2;fillStyle=dots;shadow=0;" vertex="1" parent="RCL9OEUPucsu8Cq3E-YE-145">
          <mxGeometry x="180" y="20.424277162526224" width="20" height="159.72064252219892" as="geometry" />
        </mxCell>
        <mxCell id="RCL9OEUPucsu8Cq3E-YE-162" value="" style="rounded=0;whiteSpace=wrap;html=1;fillColor=#dae8fc;strokeColor=none;dashed=1;dashPattern=1 2;fillStyle=dots;shadow=0;" vertex="1" parent="RCL9OEUPucsu8Cq3E-YE-145">
          <mxGeometry y="20.204661279058172" width="20" height="159.72064252219892" as="geometry" />
        </mxCell>
        <mxCell id="RCL9OEUPucsu8Cq3E-YE-163" value="" style="group" vertex="1" connectable="0" parent="RCL9OEUPucsu8Cq3E-YE-145">
          <mxGeometry x="160" y="-0.22999999999996135" width="200" height="199.88" as="geometry" />
        </mxCell>
        <mxCell id="RCL9OEUPucsu8Cq3E-YE-164" value="" style="ellipse;whiteSpace=wrap;html=1;aspect=fixed;strokeColor=none;fillColor=#fff2cc;fillStyle=zigzag-line;direction=east;" vertex="1" parent="RCL9OEUPucsu8Cq3E-YE-163">
          <mxGeometry x="160" y="159.9957338122319" width="39.88004061247366" height="39.88004061247366" as="geometry" />
        </mxCell>
        <mxCell id="RCL9OEUPucsu8Cq3E-YE-165" value="" style="ellipse;whiteSpace=wrap;html=1;aspect=fixed;strokeColor=none;fillColor=#fff2cc;fillStyle=zigzag-line;" vertex="1" parent="RCL9OEUPucsu8Cq3E-YE-163">
          <mxGeometry y="159.9957338122319" width="39.88004061247366" height="39.88004061247366" as="geometry" />
        </mxCell>
        <mxCell id="RCL9OEUPucsu8Cq3E-YE-166" value="" style="ellipse;whiteSpace=wrap;html=1;aspect=fixed;strokeColor=none;fillColor=#fff2cc;fillStyle=zigzag-line;" vertex="1" parent="RCL9OEUPucsu8Cq3E-YE-163">
          <mxGeometry y="0.4586690611593698" width="39.88004061247366" height="39.88004061247366" as="geometry" />
        </mxCell>
        <mxCell id="RCL9OEUPucsu8Cq3E-YE-167" value="" style="ellipse;whiteSpace=wrap;html=1;aspect=fixed;strokeColor=none;fillColor=#fff2cc;fillStyle=zigzag-line;direction=east;" vertex="1" parent="RCL9OEUPucsu8Cq3E-YE-163">
          <mxGeometry x="160" y="0.4586690611593698" width="39.88004061247366" height="39.88004061247366" as="geometry" />
        </mxCell>
        <mxCell id="RCL9OEUPucsu8Cq3E-YE-168" value="" style="whiteSpace=wrap;html=1;aspect=fixed;fillColor=#fff2cc;strokeColor=#d6b656;dashed=1;dashPattern=1 2;fillStyle=zigzag-line;direction=east;" vertex="1" parent="RCL9OEUPucsu8Cq3E-YE-163">
          <mxGeometry x="20" y="20.400802155043436" width="159.52016244989463" height="159.52016244989463" as="geometry" />
        </mxCell>
        <mxCell id="RCL9OEUPucsu8Cq3E-YE-169" value="" style="rounded=0;whiteSpace=wrap;html=1;fillColor=#fff2cc;strokeColor=#d6b656;dashed=1;dashPattern=1 2;fillStyle=zigzag-line;" vertex="1" parent="RCL9OEUPucsu8Cq3E-YE-163">
          <mxGeometry x="20" y="0.4586690611593698" width="160" height="19.942133093884063" as="geometry" />
        </mxCell>
        <mxCell id="RCL9OEUPucsu8Cq3E-YE-170" value="" style="rounded=0;whiteSpace=wrap;html=1;fillColor=#fff2cc;strokeColor=#d6b656;dashed=1;dashPattern=1 2;fillStyle=zigzag-line;" vertex="1" parent="RCL9OEUPucsu8Cq3E-YE-163">
          <mxGeometry x="20" y="179.93786690611594" width="160" height="19.942133093884063" as="geometry" />
        </mxCell>
        <mxCell id="RCL9OEUPucsu8Cq3E-YE-171" value="" style="endArrow=none;html=1;rounded=0;strokeWidth=1;" edge="1" parent="RCL9OEUPucsu8Cq3E-YE-163">
          <mxGeometry width="50" height="50" relative="1" as="geometry">
            <mxPoint x="20" as="sourcePoint" />
            <mxPoint x="180" as="targetPoint" />
          </mxGeometry>
        </mxCell>
        <mxCell id="RCL9OEUPucsu8Cq3E-YE-172" value="" style="endArrow=none;html=1;rounded=0;strokeWidth=1;" edge="1" parent="RCL9OEUPucsu8Cq3E-YE-163">
          <mxGeometry width="50" height="50" relative="1" as="geometry">
            <mxPoint x="20" y="199.42133093884064" as="sourcePoint" />
            <mxPoint x="180" y="199.42133093884064" as="targetPoint" />
          </mxGeometry>
        </mxCell>
        <mxCell id="RCL9OEUPucsu8Cq3E-YE-173" value="" style="endArrow=none;html=1;rounded=0;strokeWidth=1;" edge="1" parent="RCL9OEUPucsu8Cq3E-YE-163">
          <mxGeometry width="50" height="50" relative="1" as="geometry">
            <mxPoint x="200" y="19.942133093884063" as="sourcePoint" />
            <mxPoint x="200" y="179.4791978449566" as="targetPoint" />
          </mxGeometry>
        </mxCell>
        <mxCell id="RCL9OEUPucsu8Cq3E-YE-174" value="" style="endArrow=none;html=1;rounded=0;strokeWidth=1;" edge="1" parent="RCL9OEUPucsu8Cq3E-YE-163">
          <mxGeometry width="50" height="50" relative="1" as="geometry">
            <mxPoint y="19.942133093884063" as="sourcePoint" />
            <mxPoint y="179.4791978449566" as="targetPoint" />
          </mxGeometry>
        </mxCell>
        <mxCell id="RCL9OEUPucsu8Cq3E-YE-175" value="" style="verticalLabelPosition=bottom;verticalAlign=top;html=1;shape=mxgraph.basic.arc;startAngle=0.75;endAngle=0;strokeWidth=1;container=0;fillStyle=zigzag-line;" vertex="1" parent="RCL9OEUPucsu8Cq3E-YE-163">
          <mxGeometry width="40" height="39.88426618776813" as="geometry" />
        </mxCell>
        <mxCell id="RCL9OEUPucsu8Cq3E-YE-176" value="" style="verticalLabelPosition=bottom;verticalAlign=top;html=1;shape=mxgraph.basic.arc;startAngle=0.75;endAngle=0;strokeWidth=1;flipH=1;flipV=1;container=0;strokeColor=default;" vertex="1" parent="RCL9OEUPucsu8Cq3E-YE-163">
          <mxGeometry x="160" y="159.5370647510725" width="40" height="39.88426618776813" as="geometry" />
        </mxCell>
        <mxCell id="RCL9OEUPucsu8Cq3E-YE-177" value="" style="verticalLabelPosition=bottom;verticalAlign=top;html=1;shape=mxgraph.basic.arc;startAngle=0.75;endAngle=0;strokeWidth=1;flipV=1;container=0;" vertex="1" parent="RCL9OEUPucsu8Cq3E-YE-163">
          <mxGeometry y="159.5370647510725" width="40" height="39.88426618776813" as="geometry" />
        </mxCell>
        <mxCell id="RCL9OEUPucsu8Cq3E-YE-178" value="" style="verticalLabelPosition=bottom;verticalAlign=top;html=1;shape=mxgraph.basic.arc;startAngle=0.75;endAngle=0;strokeWidth=0.2;flipH=1;container=0;fillColor=#fff2cc;strokeColor=#d6b656;" vertex="1" parent="RCL9OEUPucsu8Cq3E-YE-163">
          <mxGeometry x="160" width="40" height="39.88426618776813" as="geometry" />
        </mxCell>
        <mxCell id="RCL9OEUPucsu8Cq3E-YE-179" value="" style="rounded=0;whiteSpace=wrap;html=1;fillColor=#fff2cc;strokeColor=#d6b656;dashed=1;dashPattern=1 2;fillStyle=zigzag-line;" vertex="1" parent="RCL9OEUPucsu8Cq3E-YE-163">
          <mxGeometry x="180" y="20.16149655791682" width="20" height="159.5370647510725" as="geometry" />
        </mxCell>
        <mxCell id="RCL9OEUPucsu8Cq3E-YE-180" value="" style="rounded=0;whiteSpace=wrap;html=1;fillColor=#fff2cc;strokeColor=#d6b656;dashed=1;dashPattern=1 2;fillStyle=zigzag-line;" vertex="1" parent="RCL9OEUPucsu8Cq3E-YE-163">
          <mxGeometry y="20.16149655791682" width="20" height="159.5370647510725" as="geometry" />
        </mxCell>
        <mxCell id="RCL9OEUPucsu8Cq3E-YE-181" value="" style="verticalLabelPosition=bottom;verticalAlign=top;html=1;shape=mxgraph.basic.arc;startAngle=0.75;endAngle=0;strokeWidth=1;flipH=1;container=0;" vertex="1" parent="RCL9OEUPucsu8Cq3E-YE-163">
          <mxGeometry x="160" y="0.4586690611593698" width="40" height="39.88426618776813" as="geometry" />
        </mxCell>
        <mxCell id="RCL9OEUPucsu8Cq3E-YE-182" value="" style="whiteSpace=wrap;html=1;aspect=fixed;fillColor=#fff2cc;strokeColor=#d6b656;dashed=1;dashPattern=1 2;fillStyle=zigzag-line;direction=east;" vertex="1" parent="1">
          <mxGeometry x="1720" y="100" width="180" height="180" as="geometry" />
        </mxCell>
        <mxCell id="RCL9OEUPucsu8Cq3E-YE-183" value="" style="whiteSpace=wrap;html=1;aspect=fixed;fillColor=#dae8fc;strokeColor=#6c8ebf;dashed=1;dashPattern=1 2;fillStyle=dots;shadow=0;" vertex="1" parent="1">
          <mxGeometry x="1540" y="100" width="180" height="180" as="geometry" />
        </mxCell>
        <mxCell id="RCL9OEUPucsu8Cq3E-YE-184" value="" style="group" vertex="1" connectable="0" parent="1">
          <mxGeometry x="1300" y="360" width="30" height="30" as="geometry" />
        </mxCell>
        <mxCell id="RCL9OEUPucsu8Cq3E-YE-185" value="" style="ellipse;whiteSpace=wrap;html=1;aspect=fixed;fillColor=none;container=0;" vertex="1" parent="RCL9OEUPucsu8Cq3E-YE-184">
          <mxGeometry width="30" height="30" as="geometry" />
        </mxCell>
        <mxCell id="RCL9OEUPucsu8Cq3E-YE-186" value="" style="shape=waypoint;sketch=0;fillStyle=solid;size=6;pointerEvents=1;points=[];fillColor=none;resizable=0;rotatable=0;perimeter=centerPerimeter;snapToPoint=1;strokeWidth=0;container=0;" vertex="1" parent="RCL9OEUPucsu8Cq3E-YE-184">
          <mxGeometry x="5" y="5" width="20" height="20" as="geometry" />
        </mxCell>
        <mxCell id="RCL9OEUPucsu8Cq3E-YE-187" value="" style="group" vertex="1" connectable="0" parent="1">
          <mxGeometry x="1305" y="460" width="30" height="30" as="geometry" />
        </mxCell>
        <mxCell id="RCL9OEUPucsu8Cq3E-YE-188" value="" style="ellipse;whiteSpace=wrap;html=1;aspect=fixed;fillColor=none;container=0;" vertex="1" parent="RCL9OEUPucsu8Cq3E-YE-187">
          <mxGeometry width="30" height="30" as="geometry" />
        </mxCell>
        <mxCell id="RCL9OEUPucsu8Cq3E-YE-189" value="" style="shape=waypoint;sketch=0;fillStyle=solid;size=6;pointerEvents=1;points=[];fillColor=none;resizable=0;rotatable=0;perimeter=centerPerimeter;snapToPoint=1;strokeWidth=0;container=0;" vertex="1" parent="RCL9OEUPucsu8Cq3E-YE-187">
          <mxGeometry x="5" y="5" width="20" height="20" as="geometry" />
        </mxCell>
      </root>
    </mxGraphModel>
  </diagram>
</mxfile>
